<svg width="25" height="24" viewBox="0 0 25 24" fill="none" xmlns="http://www.w3.org/2000/svg">
<path d="M9.99644 13.9821C9.99644 15.0161 9.24644 15.3429 8.32501 15.3429H5.90894V12.5089H8.37323C9.36966 12.5143 9.99644 12.9268 9.99644 13.9821ZM9.58394 9.57321C9.58394 8.625 8.85001 8.4 8.03573 8.4H5.9143V10.8H8.2018C9.01073 10.8 9.58394 10.4464 9.58394 9.57321ZM16.6714 10.8161C15.6911 10.8161 15.0375 11.4268 14.9732 12.4071H18.3054C18.2143 11.4161 17.7 10.8161 16.6714 10.8161ZM24.0054 2.57143V21.4286C24.0054 22.8482 22.8536 24 21.4339 24H2.5768C1.15716 24 0.00537109 22.8482 0.00537109 21.4286V2.57143C0.00537109 1.15179 1.15716 0 2.5768 0H21.4339C22.8536 0 24.0054 1.15179 24.0054 2.57143ZM14.5607 8.19643H18.7286V7.18393H14.5607V8.19643ZM12.2572 14.1054C12.2572 12.8143 11.6464 11.7 10.3822 11.3411C11.3036 10.9018 11.7857 10.3929 11.7857 9.35893C11.7857 7.3125 10.2589 6.81429 8.49644 6.81429H3.64823V17.1H8.63573C10.5054 17.0893 12.2572 16.1946 12.2572 14.1054ZM20.3625 13.3125C20.3625 11.1107 19.0714 9.27321 16.7411 9.27321C14.4697 9.27321 12.9322 10.9768 12.9322 13.2161C12.9322 15.5357 14.3947 17.1268 16.7411 17.1268C18.5197 17.1268 19.6714 16.3286 20.2286 14.6196H18.4232C18.225 15.2571 17.4268 15.5893 16.8054 15.5893C15.6054 15.5893 14.9786 14.8875 14.9786 13.6982H20.3464C20.3518 13.575 20.3625 13.4411 20.3625 13.3125Z" fill="#F2F2F2"/>
</svg>
