<svg width="24" height="24" viewBox="0 0 24 24" fill="none" xmlns="http://www.w3.org/2000/svg">
<path d="M2.57143 0H21.4286C22.8487 0 24 1.15125 24 2.57143V21.4286C24 22.8488 22.8487 24 21.4286 24H2.57143C1.15125 24 0 22.8488 0 21.4286V2.57143C0 1.15125 1.15125 0 2.57143 0ZM18.9643 20.5714C19.3411 20.5714 19.6638 20.3104 19.7473 19.9486L20.5507 16.4664C20.5931 16.2828 20.5696 16.0902 20.4844 15.9221C20.3991 15.7541 20.2575 15.6214 20.0843 15.5471L16.3344 13.94C16.1742 13.8714 15.9961 13.8567 15.8268 13.8981C15.6575 13.9396 15.5063 14.0349 15.3959 14.1698L13.7354 16.1994C11.1134 14.9692 9.0052 12.832 7.8007 10.2647L9.8303 8.60416C9.96518 8.4938 10.0605 8.34259 10.102 8.17331C10.1434 8.00404 10.1287 7.82588 10.0601 7.6657L8.45293 3.9158C8.3787 3.74261 8.24597 3.60101 8.07794 3.51575C7.9099 3.43049 7.71725 3.40699 7.53364 3.44936L4.0515 4.25282C3.87443 4.29364 3.71644 4.39328 3.6033 4.53547C3.49016 4.67766 3.42857 4.854 3.42857 5.03571C3.42857 13.6228 10.3899 20.5714 18.9643 20.5714Z" fill="#F2F2F2"/>
</svg>
