<svg width="25" height="24" viewBox="0 0 25 24" fill="none" xmlns="http://www.w3.org/2000/svg">
<path d="M21.4339 0H2.5768C1.15716 0 0.00537109 1.15179 0.00537109 2.57143V21.4286C0.00537109 22.8482 1.15716 24 2.5768 24H21.4339C22.8536 24 24.0054 22.8482 24.0054 21.4286V2.57143C24.0054 1.15179 22.8536 0 21.4339 0ZM18.8143 8.50714C18.825 8.65714 18.825 8.8125 18.825 8.9625C18.825 13.6071 15.2893 18.9589 8.82859 18.9589C6.83573 18.9589 4.98751 18.3804 3.43394 17.3839C3.71787 17.4161 3.99109 17.4268 4.28037 17.4268C5.92501 17.4268 7.43573 16.8696 8.64109 15.9268C7.09823 15.8946 5.8018 14.8821 5.35716 13.4893C5.89823 13.5696 6.38573 13.5696 6.94287 13.425C5.33573 13.0982 4.13037 11.6839 4.13037 9.975V9.93214C4.59644 10.1946 5.14287 10.3554 5.71609 10.3768C5.23417 10.0562 4.83911 9.62136 4.56616 9.11098C4.29321 8.60059 4.15085 8.03057 4.1518 7.45179C4.1518 6.79821 4.32323 6.19821 4.62859 5.67857C6.35894 7.81071 8.95716 9.20357 11.8714 9.35357C11.3732 6.96964 13.1572 5.03571 15.3 5.03571C16.3125 5.03571 17.2232 5.45893 17.8661 6.14464C18.6589 5.99464 19.4197 5.7 20.0947 5.29821C19.8322 6.1125 19.2804 6.79821 18.5518 7.23214C19.2589 7.15714 19.9447 6.95893 20.5768 6.68571C20.1 7.3875 19.5 8.00893 18.8143 8.50714Z" fill="#F2F2F2"/>
</svg>
